<?xml version="1.0" standalone="no"?><!DOCTYPE svg PUBLIC "-//W3C//DTD SVG 1.1//EN" "http://www.w3.org/Graphics/SVG/1.1/DTD/svg11.dtd"><svg t="1506569222332" class="icon" style="" viewBox="0 0 1092 1024" version="1.1" xmlns="http://www.w3.org/2000/svg" p-id="1021" xmlns:xlink="http://www.w3.org/1999/xlink" width="17.0625" height="16"><defs><style type="text/css">html, * { user-select: text !important; }
</style></defs><path d="M 509.414 207.481 h -205.056 a 41.5587 41.5587 0 1 0 0 83.1175 h 205.056 a 41.5587 41.5587 0 1 0 0 -83.1175 Z" p-id="1022" fill="#2c2c2c"></path><path d="M 389.297 394.922 h -186.407 a 41.5587 41.5587 0 0 0 0 83.1175 h 186.407 a 41.5587 41.5587 0 1 0 0 -83.1175 Z" p-id="1023" fill="#2c2c2c"></path><path d="M 1080.66 953.059 l -136.825 -136.842 a 263.509 263.509 0 0 0 50.8866 -155.592 c 0 -146.248 -118.995 -265.243 -265.243 -265.243 s -265.244 118.995 -265.244 265.242 c 0 146.268 118.995 265.263 265.243 265.263 a 263.458 263.458 0 0 0 155.592 -50.8998 l 136.822 136.836 a 41.5547 41.5547 0 0 0 58.7685 -58.7665 Z m -533.309 -292.435 c 0 -100.428 81.698 -182.125 182.126 -182.125 s 182.127 81.6959 182.127 182.125 s -81.698 182.146 -182.126 182.146 s -182.125 -81.7193 -182.125 -182.146 Z" p-id="1024" fill="#2c2c2c"></path><path d="M 872.74 0 h -748.062 A 124.813 124.813 0 0 0 0 124.679 v 623.383 a 124.813 124.813 0 0 0 124.677 124.677 h 157.572 a 41.5587 41.5587 0 0 0 0 -83.1175 h -157.572 a 41.6125 41.6125 0 0 1 -41.5587 -41.5587 v -623.384 a 41.6125 41.6125 0 0 1 41.5587 -41.5587 h 748.062 a 41.6125 41.6125 0 0 1 41.5587 41.5587 v 166.234 a 41.5587 41.5587 0 0 0 83.1175 0 v -166.234 A 124.81 124.81 0 0 0 872.74 0 Z" p-id="1025" fill="#2c2c2c"></path><path d="M 202.601 290.913 h 183.565 a 41.5587 41.5587 0 0 0 0 -83.1175 h -183.565 a 41.5587 41.5587 0 1 0 0 83.1175 Z" p-id="1026" fill="#2c2c2c"></path><path d="M 323.828 581.826 h -121.227 a 41.5587 41.5587 0 0 0 0 83.1175 h 121.227 a 41.5587 41.5587 0 0 0 0 -83.1175 Z" p-id="1027" fill="#2c2c2c"></path><path d="M 627.213 207.414 h -121.227 a 41.5587 41.5587 0 0 0 0 83.1175 h 121.227 a 41.5587 41.5587 0 0 0 0 -83.1175 Z" p-id="1028" fill="#2c2c2c"></path></svg>