<?xml version="1.0" standalone="no"?><!DOCTYPE svg PUBLIC "-//W3C//DTD SVG 1.1//EN" "http://www.w3.org/Graphics/SVG/1.1/DTD/svg11.dtd"><svg t="1506569475172" class="icon" style="" viewBox="0 0 1102 1024" version="1.1" xmlns="http://www.w3.org/2000/svg" p-id="1595" xmlns:xlink="http://www.w3.org/1999/xlink" width="17.21875" height="16"><defs><style type="text/css">html, * { user-select: text !important; }
</style></defs><path d="M187.392 314.368q-23.552 0-40.448-17.92t-16.896-41.472l0-70.656q0-24.576 16.896-41.472t40.448-16.896l782.336 0q24.576 0 41.984 16.896t17.408 41.472l0 70.656q0 23.552-17.408 41.472t-41.984 17.92l-782.336 0zM59.392 575.488q-24.576 0-41.472-17.408t-16.896-41.984l0-77.824q0-23.552 16.896-40.96t41.472-17.408l754.688 0q14.336 0 26.624 6.656t20.48 17.92q-21.504 2.048-39.936 9.216t-31.744 16.384q-11.264 9.216-32.768 25.6t-47.616 36.352-54.272 41.984-50.688 41.472l-544.768 0zM595.968 704.512q25.6 27.648 62.976 61.952t77.312 68.096l-676.864 0q-24.576 0-41.472-16.896t-16.896-41.472l0-76.8q0-23.552 16.896-40.448t41.472-16.896l522.24 0q2.048 20.48 5.12 37.888t9.216 24.576zM1064.96 575.488q14.336 0 25.6 7.168t11.264 25.6l0 52.224q0 30.72-9.728 37.888t-36.352 7.168q-11.264 0-18.432-0.512t-17.408-0.512-26.112-0.512-44.544-0.512q-22.528 0-31.744 15.872t-9.216 35.328l0 50.176q0 20.48-9.216 25.6t-26.624-9.216-46.08-32.768-59.392-37.888-59.904-38.4-47.616-34.304q-14.336-11.264-14.848-31.232t10.752-29.184q16.384-13.312 44.032-31.744t57.344-37.376 57.856-37.376 46.592-33.792q23.552-19.456 35.328-20.48t11.776 30.72l0 48.128q0 20.48 9.216 30.208t24.576 9.728l122.88 0z" p-id="1596" fill="#ede623"></path></svg>