<?xml version="1.0" standalone="no"?><!DOCTYPE svg PUBLIC "-//W3C//DTD SVG 1.1//EN" "http://www.w3.org/Graphics/SVG/1.1/DTD/svg11.dtd"><svg t="1506565089825" class="icon" style="" viewBox="0 0 1024 1024" version="1.1" xmlns="http://www.w3.org/2000/svg" p-id="2604" xmlns:xlink="http://www.w3.org/1999/xlink" width="128" height="128"><defs><style type="text/css">html, * { user-select: text !important; }
</style></defs><path d="M125.857 988.497c-0.569-7.753-0.862-15.569-0.862-23.449 0-193.216 173.61-350.407 387.005-350.407 213.394 0 387.006 157.193 387.006 350.407 0 7.879-0.294 15.697-0.862 23.449h65.859c0.466-7.781 0.707-15.598 0.707-23.449 0-56.627-12.133-111.545-36.068-163.225-23.002-49.668-55.867-94.215-97.678-132.404-66.23-60.49-149.269-99.885-239.367-114.507 107.486-34.097 185.644-135.338 185.644-254.608 0-147.165-118.987-266.894-265.241-266.894-146.254 0-265.241 119.728-265.241 266.894 0 119.271 78.159 220.511 185.644 254.608-90.098 14.622-173.138 54.017-239.367 114.507-41.812 38.188-74.675 82.737-97.678 132.404-23.933 51.68-36.068 106.597-36.068 163.225 0 7.851 0.242 15.668 0.707 23.449h65.86zM314.422 300.304c0-109.623 88.633-198.807 197.578-198.807s197.578 89.184 197.578 198.807c0 109.625-88.631 198.809-197.578 198.809s-197.578-89.184-197.578-198.809z" p-id="2605"></path></svg>